<?xml version="1.0" encoding="UTF-8" standalone="no"?>
<!DOCTYPE svg PUBLIC "-//W3C//DTD SVG 1.1//EN"
 "http://www.w3.org/Graphics/SVG/1.1/DTD/svg11.dtd">
<!-- Generated by graphviz version 2.36.0 (20140111.2315)
 -->
<!-- Title: workflow Pages: 1 -->
<svg width="371pt" height="700pt"
 viewBox="0.00 0.00 371.00 700.00" xmlns="http://www.w3.org/2000/svg" xmlns:xlink="http://www.w3.org/1999/xlink">
<g id="graph0" class="graph" transform="scale(1 1) rotate(0) translate(4 696)">
<title>workflow</title>
<polygon fill="white" stroke="none" points="-4,4 -4,-696 367,-696 367,4 -4,4"/>
<!-- input -->
<g id="node1" class="node"><title>input</title>
<polygon fill="Red" stroke="Red" points="64,-692 0,-692 0,-656 64,-656 64,-692"/>
<text text-anchor="middle" x="32" y="-671.5" font-family="sans italic" font-size="10.00">RDF&#45;Triple</text>
</g>
<!-- rapper -->
<g id="node2" class="node"><title>rapper</title>
<ellipse fill="none" stroke="Red" cx="75" cy="-592" rx="30.0327" ry="18"/>
<text text-anchor="middle" x="75" y="-589.5" font-family="sans italic" font-size="10.00">Rapper</text>
</g>
<!-- input&#45;&gt;rapper -->
<g id="edge5" class="edge"><title>input&#45;&gt;rapper</title>
<path fill="none" stroke="Blue" d="M41.3304,-655.641C47.2353,-644.655 54.9664,-630.272 61.531,-618.059"/>
<polygon fill="Blue" stroke="Blue" points="64.6224,-619.7 66.274,-609.234 58.4567,-616.386 64.6224,-619.7"/>
<text text-anchor="middle" x="75.5" y="-631.1" font-family="sans italic" font-size="8.00">Input for</text>
</g>
<!-- nquads -->
<g id="node3" class="node"><title>nquads</title>
<polygon fill="Red" stroke="Red" points="102,-528 48,-528 48,-492 102,-492 102,-528"/>
<text text-anchor="middle" x="75" y="-507.5" font-family="sans italic" font-size="10.00">Nquads</text>
</g>
<!-- rapper&#45;&gt;nquads -->
<g id="edge6" class="edge"><title>rapper&#45;&gt;nquads</title>
<path fill="none" stroke="Blue" d="M75,-573.641C75,-563.297 75,-549.941 75,-538.221"/>
<polygon fill="Blue" stroke="Blue" points="78.5001,-538.05 75,-528.05 71.5001,-538.05 78.5001,-538.05"/>
<text text-anchor="middle" x="100" y="-549.1" font-family="sans italic" font-size="8.00">Converts to</text>
</g>
<!-- tojsonld -->
<g id="node11" class="node"><title>tojsonld</title>
<ellipse fill="none" stroke="Red" cx="106" cy="-428" rx="51.2058" ry="18"/>
<text text-anchor="middle" x="106" y="-425.5" font-family="sans italic" font-size="10.00">jsonld.from_rdf</text>
</g>
<!-- nquads&#45;&gt;tojsonld -->
<g id="edge7" class="edge"><title>nquads&#45;&gt;tojsonld</title>
<path fill="none" stroke="Blue" d="M72.7097,-491.809C72.2199,-483.193 72.6491,-472.758 76,-464 77.4389,-460.239 79.4709,-456.605 81.8074,-453.192"/>
<polygon fill="Blue" stroke="Blue" points="84.6459,-455.245 88.0781,-445.222 79.1443,-450.917 84.6459,-455.245"/>
<text text-anchor="middle" x="94.5" y="-467.1" font-family="sans italic" font-size="8.00">Input for</text>
</g>
<!-- extended -->
<g id="node4" class="node"><title>extended</title>
<polygon fill="Red" stroke="Red" points="158.5,-364 53.5,-364 53.5,-328 158.5,-328 158.5,-364"/>
<text text-anchor="middle" x="106" y="-343.5" font-family="sans italic" font-size="10.00">Extended JSON&#45;LD</text>
</g>
<!-- exp2com -->
<g id="node12" class="node"><title>exp2com</title>
<ellipse fill="none" stroke="Red" cx="154" cy="-264" rx="59.1826" ry="18"/>
<text text-anchor="middle" x="154" y="-261.5" font-family="sans italic" font-size="10.00">jsonld.compacted</text>
</g>
<!-- extended&#45;&gt;exp2com -->
<g id="edge9" class="edge"><title>extended&#45;&gt;exp2com</title>
<path fill="none" stroke="Blue" d="M116.415,-327.641C122.919,-316.802 131.407,-302.655 138.671,-290.548"/>
<polygon fill="Blue" stroke="Blue" points="141.79,-292.152 143.934,-281.777 135.788,-288.551 141.79,-292.152"/>
<text text-anchor="middle" x="151.5" y="-303.1" font-family="sans italic" font-size="8.00">Input for</text>
</g>
<!-- compacted -->
<g id="node5" class="node"><title>compacted</title>
<polygon fill="Red" stroke="Red" points="211.5,-200 96.5,-200 96.5,-164 211.5,-164 211.5,-200"/>
<text text-anchor="middle" x="154" y="-179.5" font-family="sans italic" font-size="10.00">Compacted JSON&#45;LD</text>
</g>
<!-- jsonldfile -->
<g id="node7" class="node"><title>jsonldfile</title>
<polygon fill="Red" stroke="Red" points="206.5,-118 101.5,-118 101.5,-82 206.5,-82 206.5,-118"/>
<text text-anchor="middle" x="154" y="-97.5" font-family="sans italic" font-size="10.00">Serialized JSON&#45;LD</text>
</g>
<!-- compacted&#45;&gt;jsonldfile -->
<g id="edge13" class="edge"><title>compacted&#45;&gt;jsonldfile</title>
<path fill="none" stroke="Blue" d="M154,-163.641C154,-153.297 154,-139.941 154,-128.221"/>
<polygon fill="Blue" stroke="Blue" points="157.5,-128.05 154,-118.05 150.5,-128.05 157.5,-128.05"/>
<text text-anchor="middle" x="180" y="-139.1" font-family="sans italic" font-size="8.00">Serializes to</text>
</g>
<!-- objindex -->
<g id="node13" class="node"><title>objindex</title>
<ellipse fill="none" stroke="Red" cx="278" cy="-100" rx="34.9814" ry="18"/>
<text text-anchor="middle" x="278" y="-97.5" font-family="sans italic" font-size="10.00">obj.index</text>
</g>
<!-- compacted&#45;&gt;objindex -->
<g id="edge11" class="edge"><title>compacted&#45;&gt;objindex</title>
<path fill="none" stroke="Blue" d="M181.719,-163.874C190.766,-158.231 200.84,-151.892 210,-146 222.934,-137.681 237.136,-128.319 249.2,-120.297"/>
<polygon fill="Blue" stroke="Blue" points="251.178,-123.185 257.559,-114.727 247.296,-117.36 251.178,-123.185"/>
<text text-anchor="middle" x="242.5" y="-139.1" font-family="sans italic" font-size="8.00">Input for</text>
</g>
<!-- esindex -->
<g id="node6" class="node"><title>esindex</title>
<polygon fill="Red" stroke="Red" points="307.25,-36 248.75,-36 248.75,-0 307.25,-0 307.25,-36"/>
<text text-anchor="middle" x="278" y="-15.5" font-family="sans italic" font-size="10.00">ES Index</text>
</g>
<!-- redland -->
<g id="node8" class="node"><title>redland</title>
<polygon fill="none" stroke="blue" points="156,-692 86,-692 82,-688 82,-656 152,-656 156,-660 156,-692"/>
<polyline fill="none" stroke="blue" points="152,-688 82,-688 "/>
<polyline fill="none" stroke="blue" points="152,-688 152,-656 "/>
<polyline fill="none" stroke="blue" points="152,-688 156,-692 "/>
<text text-anchor="middle" x="119" y="-671.5" font-family="sans italic" font-size="10.00">Redland API</text>
</g>
<!-- redland&#45;&gt;rapper -->
<g id="edge1" class="edge"><title>redland&#45;&gt;rapper</title>
<path fill="none" stroke="Blue" d="M111.065,-655.685C107.055,-647.227 101.991,-636.966 97,-628 95.1455,-624.669 93.1133,-621.213 91.057,-617.827"/>
<polygon fill="Blue" stroke="Blue" points="93.92,-615.803 85.663,-609.165 87.9778,-619.504 93.92,-615.803"/>
<text text-anchor="middle" x="121.5" y="-631.1" font-family="sans italic" font-size="8.00">Provides</text>
</g>
<!-- pyld -->
<g id="node9" class="node"><title>pyld</title>
<polygon fill="none" stroke="blue" points="209,-528 139,-528 135,-524 135,-492 205,-492 209,-496 209,-528"/>
<polyline fill="none" stroke="blue" points="205,-524 135,-524 "/>
<polyline fill="none" stroke="blue" points="205,-524 205,-492 "/>
<polyline fill="none" stroke="blue" points="205,-524 209,-528 "/>
<text text-anchor="middle" x="172" y="-507.5" font-family="sans italic" font-size="10.00">Module pyld</text>
</g>
<!-- pyld&#45;&gt;tojsonld -->
<g id="edge2" class="edge"><title>pyld&#45;&gt;tojsonld</title>
<path fill="none" stroke="Blue" d="M152.92,-491.903C147.22,-486.42 141.128,-480.166 136,-474 130.964,-467.945 126.008,-461.027 121.62,-454.462"/>
<polygon fill="Blue" stroke="Blue" points="124.409,-452.33 116.033,-445.842 118.535,-456.137 124.409,-452.33"/>
<text text-anchor="middle" x="154.5" y="-467.1" font-family="sans italic" font-size="8.00">Provides</text>
</g>
<!-- pyld&#45;&gt;exp2com -->
<g id="edge3" class="edge"><title>pyld&#45;&gt;exp2com</title>
<path fill="none" stroke="Blue" d="M174.938,-491.853C180.517,-455.7 190.593,-369.283 173,-300 172.225,-296.949 171.125,-293.876 169.84,-290.885"/>
<polygon fill="Blue" stroke="Blue" points="172.873,-289.125 165.275,-281.741 166.61,-292.251 172.873,-289.125"/>
<text text-anchor="middle" x="201.5" y="-385.1" font-family="sans italic" font-size="8.00">Provides</text>
</g>
<!-- pyes -->
<g id="node10" class="node"><title>pyes</title>
<polygon fill="none" stroke="blue" points="363.25,-200 234.75,-200 230.75,-196 230.75,-164 359.25,-164 363.25,-168 363.25,-200"/>
<polyline fill="none" stroke="blue" points="359.25,-196 230.75,-196 "/>
<polyline fill="none" stroke="blue" points="359.25,-196 359.25,-164 "/>
<polyline fill="none" stroke="blue" points="359.25,-196 363.25,-200 "/>
<text text-anchor="middle" x="297" y="-179.5" font-family="sans italic" font-size="10.00">Module elasticsearch&#45;py</text>
</g>
<!-- pyes&#45;&gt;objindex -->
<g id="edge4" class="edge"><title>pyes&#45;&gt;objindex</title>
<path fill="none" stroke="Blue" d="M292.877,-163.641C290.396,-153.192 287.184,-139.668 284.38,-127.862"/>
<polygon fill="Blue" stroke="Blue" points="287.765,-126.971 282.049,-118.05 280.955,-128.588 287.765,-126.971"/>
<text text-anchor="middle" x="306.5" y="-139.1" font-family="sans italic" font-size="8.00">Provides</text>
</g>
<!-- tojsonld&#45;&gt;extended -->
<g id="edge8" class="edge"><title>tojsonld&#45;&gt;extended</title>
<path fill="none" stroke="Blue" d="M106,-409.641C106,-399.297 106,-385.941 106,-374.221"/>
<polygon fill="Blue" stroke="Blue" points="109.5,-374.05 106,-364.05 102.5,-374.05 109.5,-374.05"/>
<text text-anchor="middle" x="131" y="-385.1" font-family="sans italic" font-size="8.00">Converts to</text>
</g>
<!-- exp2com&#45;&gt;compacted -->
<g id="edge10" class="edge"><title>exp2com&#45;&gt;compacted</title>
<path fill="none" stroke="Blue" d="M154,-245.641C154,-235.297 154,-221.941 154,-210.221"/>
<polygon fill="Blue" stroke="Blue" points="157.5,-210.05 154,-200.05 150.5,-210.05 157.5,-210.05"/>
<text text-anchor="middle" x="179" y="-221.1" font-family="sans italic" font-size="8.00">Converts to</text>
</g>
<!-- objindex&#45;&gt;esindex -->
<g id="edge12" class="edge"><title>objindex&#45;&gt;esindex</title>
<path fill="none" stroke="Blue" d="M278,-81.6412C278,-71.2971 278,-57.941 278,-46.2206"/>
<polygon fill="Blue" stroke="Blue" points="281.5,-46.0501 278,-36.0501 274.5,-46.0501 281.5,-46.0501"/>
<text text-anchor="middle" x="300" y="-57.1" font-family="sans italic" font-size="8.00">Loads into</text>
</g>
</g>
</svg>
